<?xml version="1.0" encoding="utf-8"?>
<!-- Generator: Adobe Illustrator 16.0.0, SVG Export Plug-In . SVG Version: 6.00 Build 0)  -->
<!DOCTYPE svg PUBLIC "-//W3C//DTD SVG 1.1//EN" "http://www.w3.org/Graphics/SVG/1.1/DTD/svg11.dtd">
<svg version="1.1" id="Camada_1" xmlns="http://www.w3.org/2000/svg" xmlns:xlink="http://www.w3.org/1999/xlink" x="0px" y="0px"
	 width="105.167px" height="37.333px" viewBox="0 0 105.167 37.333" enable-background="new 0 0 105.167 37.333"
	 xml:space="preserve">
<g id="Camada_1-2">
	<path fill="#FFFFFF" d="M24.747,12.268h2.21v7.788c0,1.791,0.981,2.783,2.776,2.783c1.793,0,2.794-1.009,2.794-2.783v-7.788h2.208
		v7.925c0,2.92-1.932,4.765-5.001,4.765c-3.055,0-4.986-1.827-4.986-4.765V12.268z"/>
	<path fill="#FFFFFF" d="M36.093,24.749v-8.436h1.952l0.173,1.093c0.535-0.854,1.569-1.349,2.725-1.349
		c2.139,0,3.244,1.315,3.244,3.5v5.191H42.08v-4.694c0-1.418-0.708-2.103-1.793-2.103c-1.294,0-2.088,0.885-2.088,2.256v4.541
		H36.093z"/>
	<path fill="#FFFFFF" d="M45.495,13.359c0-0.699,0.573-1.264,1.277-1.264c0.706,0,1.277,0.565,1.277,1.264
		c0,0.693-0.561,1.254-1.26,1.264c-0.708,0.009-1.287-0.551-1.294-1.25C45.495,13.369,45.495,13.364,45.495,13.359z M45.739,16.313
		h2.105v8.436h-2.106L45.739,16.313z"/>
	<path fill="#FFFFFF" d="M49.877,16.313v-1.025c0-2.289,1.224-3.244,3.07-3.244c0.364-0.004,0.727,0.024,1.085,0.085v1.774h-0.74
		c-1.07,0-1.328,0.548-1.328,1.384v1.025h2.032v1.744h-2.033v6.692h-2.086v-6.692H48.65v-1.744H49.877z"/>
	<path fill="#FFFFFF" d="M58.624,16.075c2.637,0,4.552,1.809,4.552,4.439c0,2.631-1.915,4.44-4.552,4.44
		c-2.641,0-4.554-1.808-4.554-4.44C54.07,17.884,55.983,16.075,58.624,16.075z M58.624,23.093c1.448,0,2.447-1.043,2.447-2.576
		c0-1.532-0.999-2.574-2.447-2.574c-1.45,0-2.452,1.042-2.452,2.574C56.171,22.05,57.174,23.093,58.624,23.093z"/>
	<path fill="#FFFFFF" d="M69.679,18.21h-0.778c-1.517,0-2.465,0.804-2.465,2.442v4.097h-2.104v-8.419h1.983l0.121,1.231
		c0.362-0.836,1.175-1.401,2.312-1.401c0.314,0.001,0.628,0.041,0.932,0.12V18.21z"/>
	<path fill="#FFFFFF" d="M20.68,22.366h-2.857c1.373-2.39,1.44-5.302,0.182-7.754c0.018-0.007,0.037-0.01,0.055-0.01h2.622
		c0.591,0,0.829-0.785,0.344-1.119l-9.526-6.26c-0.514-0.354-1.194-0.354-1.708,0L0.26,13.482C-0.227,13.816,0.018,14.6,0.606,14.6
		h2.627c0.018,0,0.033,0.003,0.049,0.009c-1.258,2.45-1.193,5.363,0.181,7.754H0.605c-0.59,0-0.829,0.788-0.346,1.12l9.528,6.26
		c0.514,0.354,1.194,0.354,1.708,0l9.526-6.26C21.51,23.152,21.272,22.366,20.68,22.366z M13.132,23.268
		c-0.019,0.048-0.072,0.068-0.119,0.052c-0.027-0.012-0.046-0.034-0.055-0.062c-0.244-1.028-0.998-2.001-2.292-2.001
		c-1.293,0-2.049,0.973-2.292,2.001c-0.013,0.049-0.063,0.077-0.112,0.064c-0.028-0.006-0.051-0.023-0.063-0.055
		c-0.558-1.348,0.093-2.887,1.456-3.44c1.362-0.554,2.92,0.094,3.477,1.439C13.399,21.909,13.399,22.629,13.132,23.268
		L13.132,23.268z M15.246,22.15c-0.173,0.409-0.413,0.789-0.709,1.124c-0.053,0.062-0.146,0.068-0.205,0.016
		c-0.048-0.039-0.065-0.103-0.042-0.158c0.001-0.004,0.004-0.009,0.004-0.015c0.636-1.839-0.288-3.847-2.104-4.582
		c-1.817-0.745-3.908,0.02-4.797,1.757c-0.001,0.002-0.003,0.008-0.004,0.011c-0.036,0.074-0.124,0.104-0.197,0.069
		c-0.053-0.024-0.087-0.081-0.083-0.141c0.035-0.442,0.142-0.877,0.317-1.287c0.9-2.117,3.384-3.118,5.545-2.231
		c2.14,0.867,3.165,3.286,2.29,5.405C15.252,22.127,15.249,22.139,15.246,22.15L15.246,22.15z M16.895,19.335
		c-0.016,0.118-0.125,0.202-0.244,0.186c-0.092-0.016-0.167-0.086-0.182-0.179c-0.063-0.353-0.159-0.697-0.293-1.03
		c-1.057-2.638-4.241-4.042-6.916-3.015c-2.674,1.027-3.821,4.094-2.769,6.735c0.134,0.33,0.3,0.652,0.502,0.949
		c0.065,0.098,0.038,0.23-0.061,0.294c-0.08,0.054-0.186,0.047-0.258-0.015C4,21.082,3.617,17.169,5.818,14.522
		c2.203-2.648,6.157-3.027,8.832-0.847c0.83,0.677,1.473,1.556,1.861,2.551c0.397,0.989,0.528,2.058,0.38,3.109H16.895z"/>
</g>
<g>
	<path fill="#FFFFFF" d="M75.977,24.776c-2.47,0-4.188-1.867-4.188-4.527c0-2.65,1.732-4.525,4.201-4.525
		c2.48,0,4.212,1.863,4.212,4.525C80.203,22.909,78.458,24.776,75.977,24.776z M75.991,16.873c-1.78,0-2.955,1.342-2.955,3.375
		s1.175,3.388,2.955,3.388c1.776,0,2.963-1.366,2.963-3.388C78.954,18.215,77.767,16.873,75.991,16.873z"/>
	<path fill="#FFFFFF" d="M81.29,24.629v-5.917h1.029l0.12,0.907c0.375-0.679,1.129-1.077,1.961-1.077
		c1.562,0,2.275,0.955,2.275,2.47v3.617h-1.135v-3.363c0-1.198-0.56-1.683-1.43-1.683c-1.063,0-1.685,0.763-1.685,1.913v3.133H81.29
		z"/>
	<path fill="#FFFFFF" d="M88.03,24.629v-8.906h1.138v8.906H88.03z"/>
	<path fill="#FFFFFF" d="M90.403,16.557c0-0.421,0.34-0.749,0.75-0.749c0.411,0,0.751,0.327,0.751,0.749
		c0,0.414-0.34,0.751-0.751,0.751C90.743,17.308,90.403,16.97,90.403,16.557z M90.596,18.712h1.137v5.917h-1.137V18.712z"/>
	<path fill="#FFFFFF" d="M93.15,24.629v-5.917h1.026l0.123,0.907c0.376-0.679,1.127-1.077,1.96-1.077
		c1.561,0,2.274,0.955,2.274,2.47v3.617h-1.135v-3.363c0-1.198-0.557-1.683-1.429-1.683c-1.064,0-1.683,0.763-1.683,1.913v3.133
		H93.15z"/>
	<path fill="#FFFFFF" d="M99.479,21.677c0-1.851,1.175-3.135,2.892-3.135c1.683,0,2.783,1.162,2.783,2.917v0.424l-4.574,0.011
		c0.086,1.247,0.74,1.937,1.864,1.937c0.883,0,1.465-0.362,1.658-1.04h1.065c-0.292,1.271-1.282,1.985-2.749,1.985
		C100.675,24.776,99.479,23.517,99.479,21.677z M100.604,21.132h3.414c0-0.981-0.643-1.635-1.647-1.635
		C101.381,19.498,100.75,20.092,100.604,21.132z"/>
</g>
</svg>
